<svg viewBox="0 0 32 32" fill="none" xmlns="http://www.w3.org/2000/svg">
  <path d="M16 26C12 26 8 26 4 25L4 6C8 5 12 5 16 7" stroke="#1a2a4b" stroke-width="2" fill="#e3d5b0" stroke-linecap="round" stroke-linejoin="round" />
  <path d="M4 25L4 27C8 28 12 28 16 28" stroke="#1a2a4b" stroke-width="1" opacity="0.5" stroke-linecap="round" />
  <path d="M7 10H13" stroke="#1a2a4b" stroke-width="1" opacity="0.3" stroke-linecap="round" />
  <path d="M7 14H13" stroke="#1a2a4b" stroke-width="1" opacity="0.3" stroke-linecap="round" />
  <path d="M7 18H11" stroke="#1a2a4b" stroke-width="1" opacity="0.3" stroke-linecap="round" />
  <path d="M16 26C16 26 18 25 22 25C26 25 29 21 29 14C29 7 24 2 19 2C17 2 16 7 16 7" fill="#2b6d61" />
  <path d="M16 7V26" stroke="#2b6d61" stroke-width="1.5" opacity="0.5" stroke-linecap="round" />
  <path d="M16 12C19 11 22 9 24 6" stroke="white" stroke-opacity="0.3" stroke-width="1" stroke-linecap="round" />
  <path d="M16 18C19 17 22 15 24 13" stroke="white" stroke-opacity="0.3" stroke-width="1" stroke-linecap="round" />
</svg>
